<?xml version="1.0" encoding="UTF-8"?>
<!DOCTYPE svg PUBLIC "-//W3C//DTD SVG 1.1//EN" "http://www.w3.org/Graphics/SVG/1.1/DTD/svg11.dtd">
<svg xmlns="http://www.w3.org/2000/svg" version="1.1" width="64px" height="64px" style="shape-rendering:geometricPrecision; text-rendering:geometricPrecision; image-rendering:optimizeQuality; fill-rule:evenodd; clip-rule:evenodd" xmlns:xlink="http://www.w3.org/1999/xlink">
<g><path style="opacity:0.997" fill="#010101" d="M 1.5,-0.5 C 21.5,-0.5 41.5,-0.5 61.5,-0.5C 61.8333,0.5 62.5,1.16667 63.5,1.5C 63.5,21.5 63.5,41.5 63.5,61.5C 62.5,61.8333 61.8333,62.5 61.5,63.5C 41.5,63.5 21.5,63.5 1.5,63.5C 1.16667,62.5 0.5,61.8333 -0.5,61.5C -0.5,41.5 -0.5,21.5 -0.5,1.5C 0.5,1.16667 1.16667,0.5 1.5,-0.5 Z"/></g>
<g><path style="opacity:1" fill="#f9f9f9" d="M 18.5,14.5 C 39.3945,11.5547 47.5611,20.2213 43,40.5C 40.6875,44.5805 37.1875,47.0805 32.5,48C 27.8452,48.4992 23.1785,48.6658 18.5,48.5C 18.5,37.1667 18.5,25.8333 18.5,14.5 Z"/></g>
<g><path style="opacity:0.988" fill="#c5c5c5" d="M 31.5,21.5 C 29.8333,21.5 28.1667,21.5 26.5,21.5C 26.5,28.1667 26.5,34.8333 26.5,41.5C 28.1667,41.5 29.8333,41.5 31.5,41.5C 29.7354,42.4614 27.7354,42.7947 25.5,42.5C 25.5,35.1667 25.5,27.8333 25.5,20.5C 27.7354,20.2053 29.7354,20.5386 31.5,21.5 Z"/></g>
<g><path style="opacity:1" fill="#060606" d="M 31.5,21.5 C 35.4359,23.3144 37.1026,26.4811 36.5,31C 36.7328,34.4589 35.8995,37.6255 34,40.5C 33.3292,41.2524 32.4959,41.5858 31.5,41.5C 29.8333,41.5 28.1667,41.5 26.5,41.5C 26.5,34.8333 26.5,28.1667 26.5,21.5C 28.1667,21.5 29.8333,21.5 31.5,21.5 Z"/></g>
</svg>
